<svg width="83" height="35" viewBox="0 0 83 35" fill="none" xmlns="http://www.w3.org/2000/svg">
<path d="M41.25 0.34375C52.6068 0.34375 62.8726 2.26258 70.2861 5.35156C73.9936 6.89635 76.9719 8.72692 79.0176 10.7422C81.062 12.7562 82.1562 14.9342 82.1562 17.1875C82.1562 19.4408 81.062 21.6188 79.0176 23.6328C76.9719 25.6481 73.9936 27.4787 70.2861 29.0234C62.8726 32.1124 52.6068 34.0312 41.25 34.0312C29.8932 34.0312 19.6274 32.1124 12.2139 29.0234C8.50644 27.4787 5.52814 25.6481 3.48242 23.6328C1.438 21.6188 0.34375 19.4408 0.34375 17.1875C0.34375 14.9342 1.438 12.7562 3.48242 10.7422C5.52814 8.72692 8.50644 6.89635 12.2139 5.35156C19.6274 2.26258 29.8932 0.34375 41.25 0.34375Z" stroke="#FFF700" stroke-width="0.6875"/>
</svg>
